<?xml version="1.0" encoding="UTF-8"?>
<svg id="Layer_1" data-name="Layer 1" xmlns="http://www.w3.org/2000/svg" width="3095" height="648" viewBox="0 0 3095 648">
  <polygon points="996.03 459.77 820.6 459.77 994.95 199.32 994.95 143.35 738.8 143.35 738.8 203.62 911.55 203.62 737.73 464.08 737.73 520.04 996.03 520.04 996.03 459.77" style="fill: #fff;"/>
  <path d="M1102.9,508.74c20.98,11.84,45.11,17.76,72.38,17.76,21.17,0,40.27-3.86,57.31-11.57,17.03-7.71,31.56-18.47,43.59-32.29,12.01-13.81,20.36-29.14,25.02-46.01h-73.73c-4.66,9.33-11.22,16.78-19.64,22.33-8.43,5.57-19.46,8.34-33.09,8.34s-24.94-3.04-34.98-9.15c-10.05-6.09-17.85-14.61-23.41-25.56-4.51-8.87-7.1-19.05-7.95-30.4h199.79c.35-4.66.62-9.23.8-13.72.18-4.48.27-8.52.27-12.11,0-25.83-5.57-48.7-16.68-68.61-11.12-19.91-26.73-35.79-46.82-47.63-20.1-11.84-43.59-17.76-70.5-17.76s-51.85,6.28-72.65,18.83c-20.81,12.56-37.05,29.6-48.7,51.12-11.66,21.53-17.49,46.46-17.49,74.8s5.83,51.39,17.49,72.38c11.65,20.99,27.98,37.4,48.97,49.24ZM1141.65,309.9c10.22-5.92,21.61-8.88,34.17-8.88,16.5,0,30.41,5.21,41.71,15.61,11.3,10.41,17.49,24.04,18.57,40.9h-126.19c1.5-8.15,3.86-15.48,7.26-21.79,6.09-11.3,14.26-19.91,24.48-25.83Z" style="fill: #fff;"/>
  <path d="M1440.41,394.66c0-14.71,1.79-26.81,5.38-36.32,3.58-9.5,8.78-17.22,15.61-23.14,6.81-5.92,14.8-10.04,23.94-12.38,9.15-2.33,19.1-3.5,29.87-3.5h24.76v-76.95c-15.43,0-29.51,2.24-42.24,6.73-12.74,4.49-24.04,10.95-33.9,19.37-9.87,8.43-18.21,18.39-25.02,29.87l-6.46-49.51h-64.57v271.22h72.65v-125.39Z" style="fill: #fff;"/>
  <path d="M1643.28,508.47c20.62,12.01,44.04,18.03,70.23,18.03s49.59-6.01,70.22-18.03c20.62-12.02,36.95-28.7,48.97-50.05,12.01-21.34,18.03-46.01,18.03-73.99s-6.01-53.09-18.03-74.26c-12.03-21.17-28.25-37.75-48.7-49.78-20.45-12.02-43.77-18.03-69.96-18.03s-49.69,6.01-70.5,18.03c-20.81,12.02-37.22,28.71-49.24,50.05-12.02,21.35-18.03,46.19-18.03,74.53s6.01,52.11,18.03,73.45c12.02,21.35,28.34,38.03,48.97,50.05ZM1659.16,340.57c5.73-11.65,13.46-20.45,23.14-26.37s20.45-8.88,32.29-8.88,21.88,2.96,31.21,8.88c9.32,5.92,16.86,14.71,22.6,26.37,5.73,11.66,8.61,26.28,8.61,43.86s-2.96,31.75-8.88,43.59c-5.92,11.84-13.64,20.72-23.14,26.64-9.51,5.92-20.01,8.88-31.48,8.88s-22.07-2.96-31.75-8.88-17.31-14.8-22.87-26.64c-5.56-11.84-8.34-26.37-8.34-43.59s2.87-32.2,8.61-43.86Z" style="fill: #fff;"/>
  <polygon points="2044.71 359.68 2183.55 359.68 2183.55 302.64 2044.71 302.64 2044.71 202 2217.46 202 2217.46 143.35 1972.07 143.35 1972.07 520.04 2044.71 520.04 2044.71 359.68" style="fill: #fff;"/>
  <rect x="2264.39" y="132.59" width="72.65" height="387.45" style="fill: #fff;"/>
  <path d="M2598.13,394.12c0,15.07-2.69,27.9-8.07,38.48-5.38,10.59-12.83,18.66-22.33,24.22-9.51,5.56-20.37,8.34-32.56,8.34-19.02,0-33.1-5.47-42.24-16.41-9.15-10.94-13.73-27.35-13.73-49.24v-150.68h-72.11v157.67c0,26.19,4.04,48.16,12.11,65.92,8.07,17.76,19.91,31.21,35.52,40.36,15.61,9.15,34.52,13.72,56.77,13.72s39.37-4.58,54.62-13.72c15.25-9.15,26.99-21.43,35.25-36.86l5.38,44.13h64.04V248.82h-72.65v145.3Z" style="fill: #fff;"/>
  <path d="M2829.2,224.07c0-10.76,2.51-18.38,7.54-22.87,5.02-4.48,13.27-6.73,24.75-6.73h22.07v-61.89h-33.37c-19.02,0-35.61,3.05-49.78,9.15-14.17,6.11-25.02,15.79-32.56,29.06-7.53,13.28-11.3,31.21-11.3,53.81v24.22h-37.13v60.81h37.13v210.41h72.65v-210.41h58.66v-60.81h-58.66v-24.75Z" style="fill: #fff;"/>
  <path d="M3094.55,248.82h-58.66v-24.75c0-10.76,2.51-18.38,7.54-22.87,5.02-4.48,13.27-6.73,24.75-6.73h22.07v-61.89h-33.37c-19.02,0-35.61,3.05-49.78,9.15-14.17,6.11-25.02,15.79-32.56,29.06-7.53,13.28-11.3,31.21-11.3,53.81v24.22h-37.13v60.81h37.13v210.41h72.65v-210.41h58.66v-60.81Z" style="fill: #fff;"/>
  <path d="M48.25,491.13c14.07,28.79,32.07,55.8,54.53,79.84,6.26,6.26,3.13,17.74-3.93,23.48-.83,1.04-1.64,2.09-2.38,3.14-3.1,4.38-5.11,8.9-2.97,14.07.43,1.03,1.02,2.09,1.81,3.19,7.34,9.16,18.53,17.37,27.82,16.68.29-.02.75-.11,1.03-.21,6.95-2.6,10.16-16.65,19.93-21.75,1.17-.66,2.41-1.24,3.73-1.73,1.32-.49,2.71-.89,4.19-1.18,1-.58,2-.94,3.02-1.16,3.05-.67,6.17-.03,9.29.15,1.37.13,2.74.34,4.09.65,2.7.61,5.35,1.58,7.86,2.9,1.09.28,2.17.54,3.25.77,1.08.24,2.15.45,3.2.62,1.69.34,4.45.88,6.14,1.22,15.88,4.35,31.57,9.44,47.25,14.39,1.39.44,2.78.88,4.16,1.31,73.26,27.97,155.68,29.01,224.49-10.43,1.37-.58,2.74-1.16,4.1-1.74,1.37-.58,2.73-1.16,4.1-1.73,1.29-.71,2.57-1.43,3.83-2.18,13.99-8.18,26.3-18.77,36.12-31.8,1.02-1.07,2.02-2.15,3.02-3.24,16.91-18.54,30.68-40.39,41.32-63.28.5-1.28.99-2.56,1.43-3.83,5.32-14.29,8.28-29.43,8.22-44.99.08-1.4.15-2.81.2-4.22.05-1.41.09-2.82.11-4.23.02-1.49.03-2.99.03-4.48.63-17.25-5.47-35.43-4.48-51.75.08-.32.2-.83.28-1.16,10.59-23.87,32.22-40.51,37.08-66.26.45-1.28.87-2.57,1.26-3.86,3.12-10.38,4.34-21.38,3.55-32.28,0-1.28-.02-2.56-.03-3.85-.11-10.34-1.72-20.56-4.36-30.54-.36-1.36-.74-2.72-1.14-4.07-3.13-8.11-6.58-16.15-10.33-24.07-.63-1.32-1.26-2.64-1.9-3.95-1.39-2.59-2.78-5.18-4.18-7.76-.7-1.29-1.41-2.59-2.12-3.88-5.47-9.01-9.64-18.4-15.55-26.78-.78-1.25-1.56-2.5-2.36-3.73-5.56-8.68-11.48-17.09-17.93-25.05-1.84-2.27-3.73-4.51-5.66-6.71-3.89-5.19-8.18-10.13-12.74-14.88-.91-.95-1.83-1.89-2.76-2.83-4.03-4.04-8.93-8.12-12.15-12.58,4.25,3.1,8.05,6.79,12.49,9.65.99.73,1.97,1.46,2.95,2.2,5.86,4.45,11.45,9.19,16.37,14.5.98,1.03,1.9,2.12,2.78,3.24,5.89,7.49,9.99,16.69,15.41,24.3.68.95,1.38,1.88,2.1,2.78,6.38,9.14,20.98,15.4,30.37,8.1,15.65-13.56,2.09-33.38-9.49-45.57-.78-.9-1.56-1.79-2.36-2.68-2.38-2.64-4.78-5.17-7.08-7.53-.99-1.03-2-2.05-3.01-3.06-.68-.67-1.36-1.34-2.04-1.99-11.83-12.5-25.51-21.56-40.16-30.44-1.44-.87-1.74-2.67-.65-3.96,9.77-11.61,19.55-22.43,29.51-34.26.87-1.01,1.75-2.01,2.63-3.01,4.64-5.24,9.44-10.36,14.6-15.24.86-.81,1.71-1.62,2.58-2.42,12.37-6.75,10.17-13.44,3.23-20.79-.87-.92-1.81-1.85-2.8-2.79-6.87-4.68-11.05-16.16-17.31-16.16s-13.56,10.43-19.72,16.68c-.9.9-1.81,1.8-2.71,2.73-1.04,1.06-2.07,2.12-3.1,3.19-7.54,7.46-15.18,17.64-22.43,26.57-1.04,1.27-2.06,2.52-3.08,3.74-6.33,6.56-11.54,15.95-21.98,15.95-1.42-.15-2.83-.3-4.25-.46-5.1-.57-10.21-1.19-15.33-1.86-1.28-.17-2.56-.33-3.83-.5-14.32-2.55-28.81-4.8-43.41-6.67-.19-.04-.51-.1-.71-.14-15.85-4.24-31.93-6.31-48.09-6.73-1.35-.04-2.7-.06-4.05-.07-25.41.72-50.55-.12-75.8,3.05-.54.04-1.42.11-1.96.15-23.77.72-46.66,3.84-68.15,13.21-.64.23-1.7.61-2.34.85-35.46,10.15-69.53,25.31-99.41,47.25-1.24.89-2.48,1.79-3.71,2.71-23.47,17.39-43.83,37.53-59.94,59.64-.85,1.16-1.68,2.33-2.51,3.51-8.28,9.08-15.07,19.13-20.66,29.83-.62,1.19-1.23,2.38-1.82,3.59-10.4,18.91-24.45,37.28-27.84,59.15-.23,1.45-.47,2.82-.65,4.22-1.72,13.57-5.9,27.13-2.77,41.74,2.09,11.48,2.09,21.91,2.37,32.43.09,1.42.2,2.84.28,4.33,1.3,25.49,8.34,49.13,17.83,72.62.41,1.4.84,2.79,1.28,4.17,5.72,18.03,13.58,35.33,23.01,52.02.62,1.32,1.25,2.63,1.89,3.94ZM161.21,512.45c-.73.84-1.42,1.67-2.07,2.49-10.45,10.13-16.71,38.29-34.45,28.9-8.35-4.17-12.52-13.56-17.92-21.52-.55-.79-1.1-1.6-1.67-2.44-10.05-15.84-19.66-32.06-27.92-48.84-.64-1.29-1.26-2.58-1.88-3.88-7.88-13.17-11.09-27.87-14.36-42.54-.29-1.32-.51-2.55-.75-3.79.86-6.35-5.4-11.56-2.27-17.82,3.13,4.17,6.26,8.35,9.76,12.56.67.89,1.35,1.79,2.08,2.73,3.69,4.73,7.47,9.29,12.04,13.07.77.67,1.55,1.34,2.33,1.99,5.48,4.61,11.24,8.9,17.3,12.79,1.21.81,2.44,1.6,3.67,2.38,4.92,3.13,9.97,6.06,15.13,8.78,1.14.67,2.28,1.33,3.42,1.99,1.14.66,2.28,1.31,3.41,1.95,1.3.74,2.59,1.46,3.87,2.17,14.62,11.57,41.74,12.62,41.74,31.4,0,5.48-6.39,11.75-11.47,17.64ZM529.22,433.21c-.08,1.29-.16,2.57-.25,3.85-.55,7.68-1.33,15.21-1.93,22.92-.1,1.28-.2,2.56-.3,3.83-.1,1.27-.19,2.53-.28,3.79-.11.98-.22,1.94-.35,2.88-2.54,7.05-5.17,13.99-8.01,20.78-.58,1.3-1.16,2.62-1.75,3.93-7.23,16.87-17.86,31.49-30.37,44.49-.09.08-.24.22-.33.31-9.87,8.31-20.13,16.04-30.48,23.62-1.13.8-2.27,1.63-3.42,2.45-5.54,4.93-11.42,9.47-17.58,13.6-1.21.77-2.45,1.56-3.7,2.33-51.22,29.66-112.77,32.79-169.4,19.95-1.29-.3-2.57-.61-3.85-.94-17.89-4.56-34.74-11.22-51.66-17.94-1.28-.51-2.51-1.01-3.75-1.51-1.55-.65-3.11-1.3-4.66-1.94-.78-.32-1.54-.63-2.3-.94-6.3-2.95-16.04-3.44-19.12-6.55-.61-.62-.96-1.34-.96-2.21,0-.94.11-1.89.3-2.84.19-.96.48-1.92.84-2.89,2.89-7.75,10.65-15.76,16.09-22.46.77-1.03,1.54-2.06,2.35-3.1.69-.92,1.38-1.85,2.07-2.77.69-.92,1.38-1.85,2.07-2.77,5.01,6.28,10.53,12.41,16.46,18.06.99.94,1.99,1.87,2.99,2.78,1.13.96,2.27,1.9,3.42,2.84,22.26,22.55,53.56,32.99,83.41,28.44,1.41-.21,2.81-.45,4.21-.73,14.39-2.82,28.23-9,40.22-18.49,1-.79,1.94-1.55,2.85-2.32,40.74-30.25,61.61-78.24,70.08-127.11.31-1.43.61-2.87.92-4.34.17-.7.58-1.36,1.16-2.01.58-.65,1.33-1.29,2.2-1.92.87-.63,1.85-1.26,2.88-1.91,1.04-.64,2.13-1.29,3.21-1.97,2.17-1.35,4.34-2.81,6.01-4.46.76-.74,1.51-1.49,2.25-2.27,18.89-.53,45.52-1.93,71.84-9.18,1.46-.4,2.92-.82,4.38-1.26,1.03-.02,2.07-.29,3.11-.69,3.12-1.2,9.37,1.44,9.37,3.87-.01,7.61-.06,14.91-.26,22.78ZM355.07,373.01c1.3.37,2.6.73,3.9,1.08,5.68.75,9.85,2.84,15.07,2.84-5.22,2.09-10.43,2.09-16.14,1.6-1.37-.12-2.74-.3-4.11-.51-9.58-1.52-19.1-5.18-27.45-7.99-1.19-.43-2.38-.88-3.56-1.34,8.81-2.75,20.57,1.01,32.29,4.33ZM310.47,292.22c-4.92,3.13-9.75,7.07-13.78,11.3-2.67,2.81-5.01,5.86-7.4,8.9-1.36-1.63-3.45-2.41-5.33-3.41-1.87-1-3.76-2.51-4.01-4.62-.22-1.79.86-3.54,2.29-4.63,2.56-1.94,6.13-3.43,8.95-5.08.93-.54,1.87-1.08,2.8-1.6,11.99-6.82,24.05-14.4,38.12-15.11-.61,3.06-2.7,5.62-5.3,7.4-.58.4-1.18.75-1.8,1.07-4.88,2.5-9.86,2.79-14.55,5.78ZM347.08,336.57c5.83-7.83,10.27-14.84,18.61-20.05,1.79-1.12,3.8-2.13,5.91-2.01,1.05.06,1.81.3,2.37.67,2.78,1.84.36,7,1.98,10.04.16,1.23.31,2.47.44,3.71.48,4.52,1.3,9.76.51,14.16-10.01-1.08-20.12-3.78-29.81-6.51ZM370.14,185.07c-.76-.85-1.57-1.66-2.44-2.42-.87-.76-1.81-1.47-2.83-2.13-.75-.62-1.5-1.25-2.24-1.89-.74-.65-1.46-1.31-2.16-2.01,1.04.52,2.35.78,3.66.96,1.31.18,2.63.28,3.71.47,3.42.82,6.94,1.3,10.5,1.74,1.18.15,2.37.29,3.56.44,6.23.45,12.15,1.21,17.26,3.37.46,2.13.47,2.15.93,4.28-5.33,5.51-9.18,14.82-14.58,14.82-7.3,1.04-10.43-11.48-15.37-17.63ZM366.88,237.06s-.02.04-.03.06c-4.29-4.17-10.55-7.3-14.65-11.01-.82-.53-1.65-1.05-2.51-1.58-3.44-2.11-6.89-4.27-10.22-6.61-1.18-.73-2.37-1.48-3.57-2.23-5.99-3.74-12.16-7.25-18.65-10.43-1.23-.62-2.47-1.22-3.73-1.82-7.45-3.58-15.06-6.8-22.89-9.67-2.59-.95-2.82-2.94-.62-4.61,11.23-8.46,22.83-6.79,33.43-.52,1.17.7,2.34,1.45,3.48,2.24,8.95,5.9,15.51,13.81,21.6,22.11.76,1.04,1.52,2.08,2.27,3.13.49.81.99,1.61,1.51,2.39,4,6.08,10.26,12.34,14.58,18.54ZM291.39,230.18c1.23.55,2.45,1.11,3.66,1.68-12.83.05-25.35,4.22-36.82,9.44,1.04-7.3,2.09-17.74,7.3-18.78,8.35-3.13,17.74,4.17,25.86,7.66ZM272.06,436.6c4.16-5.23,8.3-10.47,12.39-15.76,2.4-3.1,12.25-12.41,12.25-16.15.62-.91,1.22-1.82,1.83-2.73,5.62-1.05,8.75,4.17,12.46,6.51.73.68,1.46,1.39,2.2,2.1,2.23,2.13,4.5,4.29,7.03,6.02.96.73,1.94,1.45,2.94,2.17,5.16,3.7,10.49,7.1,15.84,10.62,1.49.98,1.71,2.85.45,4.11-22.01,21.94-47.78,31.57-76.96,33.58-4.76.33-7.75-8.68-4.25-13.13,4.57-5.8,9.23-11.54,13.83-17.33ZM262.36,501.98c1.53-.04,3.06-.1,4.57-.18,1.45-.06,2.89-.14,4.33-.25,1.44-.1,2.87-.23,4.3-.38,31.46-3.36,60.1-17.6,83.59-38.73,1.07-.96,2.12-1.94,3.17-2.92,6.41-5.47,10.38-13.82,17.84-16.85,2.37-.96,4.04.55,3.52,3.05-7.02,33.85-26.35,64.58-52.6,86.49-1.13.91-2.28,1.78-3.46,2.6-24.69,17.34-59.05,16.48-82.87-2.48-1.02-.84-2.04-1.71-3.05-2.6-4.77-4.22-9.37-9-13.66-14.06-1.39-1.64-1.75-8.92-1.34-9.61.82-1.39,7.09-5.69,8.78-5.48,9.2,1.16,18.17,1.62,26.88,1.4ZM251.32,390.04c-8.03,12.42-17.61,23.23-25,35.48-.71,1.11-1.42,2.21-2.17,3.32-4.47,6.67-17.29,30.14-27.6,23.63-.42-.27-.82-.59-1.18-.97-4.55-4.69-4.68-17.19-5.24-22.72-.13-1.29-.25-2.58-.35-3.88-2.1-27.22,5.18-51.94,16.24-75.85,2.21-4.78,6.17-7.55,7.09-3.22.92,4.34,2.43,8.63,3.58,10.76,3.4,6.29,7.73,11.96,12.77,16.8,1.01.97,2.04,1.9,3.1,2.81,5.06,5.14,11.22,7.39,17.53,9.94,1.61.65,2.17,2.43,1.23,3.89ZM444.98,314.33c3.13,0,6.26,2.09,9.39,1.37,1.2.23,2.44.5,3.69.78,4.99,1.1,10.01,2.26,15.35,2.48,1.39.31,2.79.64,4.18.99,11.26,2.84,22.21,7.11,32.33,13.58,1.12.72,2.24,1.47,3.34,2.24,1.02.68,1.95,1.35,2.79,2.03-.61,1.3-1.42,2.47-2.28,3.53-.87,1.06-1.81,2.01-2.66,2.85-.95.93-1.94,1.79-2.98,2.6-7.86,6.12-18.09,8.64-27.94,8.83-1.41.03-2.81,0-4.19-.06-17.06,1.87-20.21-13.3-25.32-27.01-.46-1.25-.94-2.48-1.43-3.67-1.12-4.29-3.21-6.38-4.25-10.55ZM466.89,179.75c3.14-7.85,8.65-14.52,13.85-21.79,1.71-2.39,10.15-2.2,13.33.58.73.7,1.47,1.4,2.2,2.12,2.2,2.16,4.41,4.44,6.53,6.92.91.97,1.81,1.93,2.78,2.99,23.3,25.43,44.14,52.27,56.26,85.39.47,1.3.92,2.61,1.35,3.92,1.2,3.66,2.26,7.35,3.15,11.07.3,1.24.57,2.46.83,3.64,3.93,19.44,2.6,36.97-4.16,54.69-3.63,4.27-10.33,2.01-13.72-1.38-4.17-5.22-5.22-11.48-3.51-17.33-.02-1.38-.06-2.87-.11-4.39-.25-7.59-.71-15.35-3.69-22.03-.43-1.09-.88-2.17-1.4-3.33-1.57-3.52-3.2-7.01-4.73-10.52-.57-1.19-1.15-2.37-1.73-3.56-1.72-3.53-3.45-7.05-5.18-10.72-11.06-20.24-24.2-38-34.44-48.61-2.91-3.02-6.11-6.03-9.55-9.01-.86-.75-1.74-1.49-2.63-2.23-.66-.48-1.27-.99-1.85-1.52-4.21-6.55-16.73-6.55-13.6-14.9ZM457.26,219c6.97,5.54,13.48,11.65,18.87,18.67.67.81,1.35,1.64,2.02,2.49,2.71,3.4,5.44,7.09,8.12,11,.77,1.12,1.53,2.25,2.29,3.4,7.46,12.06,14.75,23.11,19.96,35.4,1.28,3.03-.33,4.55-3.41,3.39-15.88-5.96-31.86-9.52-48.7-11.62-1.36-.21-2.6-.45-3.87-.68-3.78-.57-7.5-1.64-11.17-2.67-1.22-.34-2.44-.68-3.66-.99-2.13-.61-5.26-.61-7.07-1.57-1.08-.27-2.16-.54-3.24-.8-1.13-2.25-2.47-4.68-3.88-7.04-.47-.79-.95-1.57-1.43-2.33-13.64-18.08,9.31-35.81,17.15-50.75.66-1.11,1.29-2.24,1.91-3.41.63-1.16,1.21-2.35,1.73-3.57,4.17,2.09,7.3,6.26,11.35,8.75,1.01.77,2.02,1.55,3.01,2.34ZM303.15,99.96c1.14-.53,2.28-1.01,3.53-1.42,10.25-3.35,21.24-3.68,31.81-5.33,6.07-.95,12.35-1.25,18.73-1.04,20.76.69,42.48,6.81,60.99,13.66,1.18.48,2.35.96,3.53,1.44,3.18,1.3,6.36,2.62,9.5,3.99,1.05.46,2.09.92,3.13,1.39,1.07.4,2.09.85,3.05,1.33.97.48,1.89.95,2.79,1.44,1.35,1.38,3.06,2.07,4.96,2.68,1.9.61,3.44,5.2,2.17,6.92-8.35,11.22-15.81,27.33-26.29,31.89-1.1.48-2.23.83-3.4,1.03-1.87-.12-5-.12-7.51-.67-1.34-.45-2.72-1.09-4.16-1.93-1.44-.84-2.92-1.88-4.47-3.15-1.19-.39-2.44-.77-3.69-1.14-5.14-1.22-10.19-2.49-15.2-3.66-1.25-.29-2.5-.58-3.75-.86-14.18-2.68-29.15-3.88-43.84-6.1-1.47-.22-2.93-.45-4.39-.69-12.04-3.22-29.86-6.14-39.89-11.08-1-.49-1.93-1.01-2.76-1.55-12.01-8.91,5.72-22.47,15.16-27.14ZM252.76,155.38c1.3-2.76,2.34-5.89,3.39-9.02,1.04.35,2.09.7,3.13,1.05,1.05.36,2.09.72,3.15,1.11,1.38.67,2.77,1.35,4.18,2.03,3.11,1.03,5.19,3.11,8.78,4.02.89.48,1.77.97,2.64,1.46-2.06,2.85-5.19,2.85-6.93,4.55-.75.56-1.5,1.14-2.23,1.74-.99.78-1.97,1.58-2.94,2.39-5.81,4.91-11.13,10.4-15.91,16.42-1.01-.24-2.02-.46-3.03-.69,1.05-7.59,2.61-14.89,4.7-21.71.35-1.14.71-2.26,1.08-3.36ZM216.92,105.93c.88-.26,1.78-.52,2.66-.76,8.39-2.63,17.78-5.76,27.28-7.15,1.42-.31,2.88-.61,4.37-.92-7.6,11.69-21.17,12.74-33.2,10.54-1.27-.15-2.57-.41-3.61-.93.78-.26,1.63-.52,2.51-.78ZM98.68,181.35c8.94-8.82,17.22-18.6,27.69-25.7,1.96-1.33,4.04-2.52,6.2-3.57,8.88-4.35,19.16-6.56,28.69-8.14.42-.07,1.12-.19,1.54-.26,19.36-2.52,39.14-2.52,58.91-2.52-1.04,2.09-1.04,4.17-1.95,6.08-.36,1.08-.7,2.18-1.03,3.28-2.08,7-3.72,14.29-4.92,21.79-.21,1.32-1.49,2.29-2.82,2.14-16.19-1.76-31.77-2.12-46.64-1.1-1.2.08-2.4.17-3.59.27-20.24-.1-40.07,4.12-59.24,12.01-6.83,2.81-8.1.92-2.84-4.27ZM53.42,284.59c.24-1.31.52-2.61.88-3.98,4.34-16.39,12.74-31.74,26.81-41.62.87-.63,1.74-1.25,2.62-1.86,2.64-1.82,5.31-3.5,7.99-5.05,1.19-.78,2.39-1.55,3.6-2.31,23.04-14.36,49.41-23.01,77.3-23.68,8.72-.27,19.06-2.04,27.16,1.82,14.83,7.08,12.37,22.08,14.8,35.91.23,1.29.46,2.57.71,3.85,1.2,7.18,6.42,16.57,3.29,20.74-26.6,35.99-53.79,73.16-61.74,115.08-.53,2.79-.97,5.61-1.32,8.45-1.45,13.65-.76,27.64.9,41.66.32,2.68-1.36,3.91-3.76,2.69-23.78-12.04-47.03-27.35-66.01-46.58-1.01-1.02-2-2.05-2.98-3.1-10.21-9.85-13.69-24.69-19.1-37.4-.49-1.16-1-2.29-1.53-3.41-4.07-8.53-6.15-17.92-8.48-25.93-.09-1-.18-2-.27-3.02-2.63-10.89-2.63-22.36-.86-32.28Z" style="fill: #fff;"/>
</svg>