<svg xmlns="http://www.w3.org/2000/svg" viewBox="0 0 512 512" fill="none">
  <rect width="512" height="512" rx="64" fill="#050505"/>
  <g transform="translate(24, 0) scale(0.505)">
    <path d="M255,920.02c4.1.93,8.12,2.39,11.93,4.41,1.66.42,3.3.82,4.93,1.18,1.64.36,3.26.68,4.86.94,2.57.51,6.75,1.34,9.32,1.85,24.1,6.6,47.92,14.32,71.73,21.85,2.11.67,4.21,1.33,6.31,1.99,111.21,42.45,236.32,44.04,340.76-15.84,2.08-.88,4.15-1.76,6.23-2.64,2.08-.88,4.15-1.75,6.23-2.63,1.96-1.07,3.9-2.18,5.82-3.31,21.24-12.42,39.92-28.5,54.82-48.27,1.54-1.62,3.07-3.26,4.58-4.91,25.68-28.15,46.57-61.31,62.73-96.05.77-1.94,1.5-3.88,2.17-5.82,8.08-21.69,12.56-44.67,12.47-68.29.12-2.13.22-4.26.3-6.4.08-2.14.13-4.27.17-6.42.04-2.27.05-4.53.04-6.81.96-26.18-8.31-53.79-6.81-78.56.12-.49.31-1.26.43-1.75,16.07-36.24,48.91-61.49,56.29-100.57.68-1.94,1.32-3.89,1.91-5.86,4.74-15.76,6.58-32.46,5.39-48.99,0-1.94-.03-3.88-.05-5.84-.17-15.7-2.61-31.21-6.62-46.35-.55-2.07-1.12-4.12-1.72-6.17-4.75-12.31-9.99-24.51-15.68-36.54-.95-2.01-1.91-4-2.89-5.99-2.1-3.93-4.22-7.86-6.35-11.78-1.07-1.96-2.14-3.93-3.21-5.89-8.3-13.68-14.64-27.93-23.6-40.65-1.18-1.9-2.38-3.79-3.58-5.67-8.44-13.17-17.43-25.94-27.22-38.02-2.8-3.45-5.66-6.85-8.6-10.18-5.91-7.88-12.42-15.38-19.34-22.59-1.38-1.44-2.78-2.87-4.2-4.29-6.11-6.13-13.55-12.33-18.44-19.09,6.45,4.71,12.22,10.3,18.95,14.64,1.5,1.1,2.99,2.22,4.47,3.34,8.89,6.75,17.38,13.95,24.85,22,1.48,1.57,2.89,3.22,4.23,4.92,8.95,11.37,15.16,25.33,23.39,36.89,1.03,1.45,2.09,2.85,3.19,4.21,9.68,13.87,31.85,23.38,46.1,12.29,23.76-20.59,3.17-50.68-14.4-69.18-1.18-1.37-2.38-2.72-3.58-4.06-3.6-4.01-7.25-7.85-10.75-11.42-1.51-1.56-3.03-3.11-4.57-4.64-1.03-1.02-2.06-2.03-3.09-3.03-17.96-18.97-38.72-32.73-60.96-46.2-2.19-1.33-2.64-4.05-.99-6.01,14.83-17.62,29.68-34.04,44.8-52,1.32-1.53,2.66-3.05,4-4.57,7.04-7.96,14.33-15.73,22.17-23.14,1.31-1.23,2.6-2.46,3.91-3.67,18.77-10.24,15.43-20.4,4.9-31.55-1.32-1.39-2.75-2.81-4.26-4.23-10.44-7.1-16.77-24.52-26.27-24.52s-20.59,15.84-29.94,25.32c-1.37,1.37-2.74,2.74-4.12,4.14-1.57,1.61-3.14,3.22-4.7,4.84-11.45,11.32-23.04,26.78-34.05,40.33-1.57,1.94-3.13,3.83-4.68,5.67-9.61,9.96-17.52,24.22-33.36,24.22-2.15-.23-4.3-.46-6.45-.7-7.73-.86-15.49-1.81-23.27-2.82-1.94-.25-3.89-.51-5.82-.76-21.74-3.86-43.74-7.29-65.89-10.12-.3-.06-.78-.15-1.08-.21-24.06-6.43-48.47-9.58-72.99-10.22-2.05-.05-4.1-.09-6.14-.11-38.57,1.1-76.73-.18-115.05,4.63-.82.06-2.16.17-2.97.23-36.09,1.09-70.82,5.83-103.44,20.06-.98.35-2.57.93-3.55,1.28-53.83,15.41-105.54,38.43-150.91,71.73-1.89,1.35-3.76,2.72-5.64,4.11-35.63,26.41-66.53,56.97-90.99,90.54-1.29,1.77-2.56,3.54-3.81,5.33-12.56,13.78-22.87,29.04-31.36,45.28-.94,1.8-1.86,3.62-2.76,5.45-15.78,28.7-37.11,56.58-42.26,89.79-.35,2.2-.71,4.28-.99,6.41-2.61,20.6-8.95,41.19-4.2,63.36,3.17,17.42,3.17,33.26,3.6,49.22.14,2.16.3,4.31.43,6.57,1.97,38.7,12.66,74.58,27.06,110.24.63,2.12,1.28,4.23,1.94,6.33,8.68,27.36,20.61,53.63,34.93,78.96.95,2,1.91,3.99,2.88,5.97,21.36,43.7,48.68,84.71,82.78,121.2,9.5,9.5,4.75,26.92-5.97,35.64-1.26,1.59-2.49,3.17-3.62,4.77-4.71,6.65-7.76,13.51-4.51,21.36.65,1.57,1.55,3.18,2.74,4.83,11.14,13.9,28.13,26.36,42.23,25.32.44-.03,1.15-.17,1.56-.33,10.55-3.94,15.43-25.27,30.25-33.01,1.78-1,3.67-1.88,5.67-2.63,2-.75,4.12-1.35,6.36-1.79,1.51-.87,3.04-1.43,4.58-1.77,4.63-1.01,9.37-.05,14.11.23,2.08.2,4.16.52,6.21.98ZM802.69,657.28c-.11,1.95-.24,3.9-.38,5.84-.84,11.65-2.01,23.09-2.93,34.79-.15,1.95-.31,3.88-.45,5.82-.15,1.93-.29,3.84-.43,5.75-.16,1.49-.34,2.94-.53,4.38-3.85,10.7-7.85,21.24-12.15,31.54-.88,1.97-1.76,3.97-2.65,5.97-10.97,25.61-27.1,47.8-46.1,67.54-.14.13-.36.34-.5.47-14.98,12.62-30.56,24.35-46.26,35.86-1.71,1.22-3.45,2.47-5.19,3.72-8.41,7.49-17.34,14.38-26.69,20.65-1.84,1.18-3.72,2.37-5.61,3.54-77.75,45.02-171.19,49.77-257.14,30.29-1.95-.45-3.9-.93-5.84-1.43-27.15-6.92-52.74-17.04-78.41-27.24-1.94-.77-3.81-1.53-5.7-2.29-2.36-.99-4.72-1.97-7.08-2.94-1.18-.49-2.34-.96-3.5-1.43-9.56-4.48-24.35-5.23-29.02-9.94-.93-.94-1.46-2.04-1.46-3.36,0-1.43.16-2.87.45-4.32.29-1.45.73-2.92,1.27-4.39,4.38-11.76,16.17-23.93,24.42-34.09,1.17-1.56,2.34-3.12,3.57-4.7,1.05-1.4,2.1-2.81,3.15-4.21,1.05-1.4,2.1-2.81,3.15-4.21,7.61,9.54,15.99,18.84,24.99,27.41,1.5,1.43,3.02,2.84,4.54,4.22,1.71,1.45,3.44,2.89,5.18,4.31,33.79,34.23,81.3,50.07,126.62,43.18,2.14-.32,4.27-.69,6.39-1.1,21.85-4.27,42.86-13.66,61.06-28.07,1.52-1.2,2.94-2.35,4.33-3.53,61.85-45.92,93.52-118.77,106.38-192.95.47-2.17.93-4.35,1.39-6.59.26-1.06.88-2.07,1.76-3.06.88-.99,2.02-1.95,3.33-2.91,1.31-.96,2.8-1.92,4.37-2.89,1.57-.97,3.23-1.96,4.88-2.99,3.3-2.05,6.58-4.26,9.13-6.77,1.15-1.12,2.29-2.27,3.41-3.45,28.67-.81,69.1-2.93,109.05-13.93,2.22-.61,4.44-1.25,6.65-1.92,1.57-.02,3.14-.44,4.72-1.05,4.73-1.82,14.23,2.19,14.22,5.88-.02,11.56-.09,22.64-.4,34.58ZM538.34,565.89c1.98.56,3.95,1.11,5.92,1.64,8.62,1.14,14.95,4.31,22.87,4.31-7.92,3.17-15.84,3.17-24.5,2.43-2.08-.19-4.16-.45-6.24-.78-14.55-2.31-28.99-7.86-41.67-12.13-1.81-.65-3.61-1.33-5.4-2.03,13.37-4.17,31.23,1.54,49.02,6.57ZM470.64,443.27c-7.47,4.75-14.8,10.74-20.91,17.16-4.06,4.26-7.6,8.89-11.24,13.51-2.06-2.48-5.24-3.66-8.08-5.18-2.85-1.51-5.71-3.82-6.09-7.02-.33-2.72,1.3-5.37,3.48-7.03,3.88-2.94,9.3-5.21,13.58-7.71,1.41-.82,2.84-1.64,4.24-2.43,18.21-10.35,36.51-21.86,57.86-22.93-.92,4.64-4.1,8.52-8.04,11.23-.88.6-1.79,1.14-2.73,1.62-7.41,3.8-14.96,4.24-22.08,8.77ZM526.22,510.59c8.84-11.88,15.59-22.52,28.24-30.44,2.72-1.7,5.76-3.24,8.97-3.06,1.59.09,2.75.45,3.6,1.01,4.21,2.8.54,10.63,3,15.25.24,1.87.47,3.75.67,5.64.72,6.87,1.97,14.81.77,21.49-15.19-1.64-30.55-5.74-45.25-9.89ZM561.22,280.6c-1.15-1.29-2.38-2.52-3.7-3.67-1.33-1.16-2.75-2.24-4.3-3.23-1.14-.94-2.28-1.89-3.4-2.88-1.12-.98-2.22-1.99-3.28-3.05,1.58.79,3.56,1.19,5.56,1.46,1.99.27,4,.42,5.63.71,5.2,1.25,10.54,1.98,15.93,2.65,1.8.22,3.6.44,5.4.66,9.45.68,18.44,1.83,26.2,5.12.7,3.23.71,3.26,1.42,6.49-8.1,8.36-13.94,22.5-22.13,22.5-11.08,1.58-15.84-17.42-23.33-26.76ZM556.27,359.53s-.03.06-.05.09c-6.52-6.33-16.02-11.08-22.24-16.71-1.24-.8-2.5-1.6-3.81-2.4-5.22-3.21-10.45-6.48-15.51-10.03-1.79-1.11-3.6-2.25-5.42-3.38-9.09-5.68-18.45-11-28.31-15.83-1.87-.94-3.75-1.86-5.66-2.77-11.3-5.43-22.86-10.32-34.75-14.68-3.94-1.44-4.29-4.47-.94-6.99,17.04-12.84,34.66-10.31,50.75-.79,1.78,1.06,3.55,2.19,5.28,3.4,13.58,8.96,23.54,20.96,32.79,33.57,1.16,1.58,2.3,3.16,3.44,4.75.74,1.23,1.5,2.44,2.29,3.63,6.07,9.23,15.57,18.73,22.14,28.14ZM441.68,349.09c1.86.83,3.71,1.68,5.56,2.55-19.47.07-38.48,6.41-55.9,14.32,1.58-11.09,3.17-26.92,11.09-28.51,12.67-4.75,26.92,6.33,39.25,11.64ZM412.33,662.43c6.31-7.94,12.59-15.9,18.8-23.92,3.64-4.7,18.59-18.84,18.59-24.52.94-1.38,1.86-2.77,2.78-4.14,8.53-1.59,13.28,6.33,18.91,9.89,1.11,1.04,2.21,2.11,3.34,3.19,3.39,3.23,6.83,6.52,10.68,9.13,1.46,1.11,2.94,2.2,4.46,3.29,7.83,5.62,15.92,10.78,24.04,16.12,2.26,1.49,2.59,4.32.68,6.23-33.41,33.3-72.52,47.93-116.82,50.98-7.23.5-11.77-13.18-6.44-19.94,6.94-8.81,14-17.52,20.99-26.31ZM397.61,761.67c2.32-.06,4.64-.15,6.93-.27,2.2-.09,4.39-.21,6.58-.38,2.18-.16,4.36-.35,6.53-.58,47.76-5.09,91.24-26.72,126.88-58.79,1.62-1.46,3.22-2.94,4.81-4.44,9.73-8.3,15.76-20.98,27.07-25.57,3.6-1.46,6.13.83,5.34,4.63-10.66,51.39-40,98.04-79.84,131.29-1.72,1.38-3.47,2.7-5.25,3.95-37.49,26.33-89.63,25.02-125.79-3.76-1.55-1.27-3.1-2.59-4.63-3.94-7.25-6.4-14.23-13.66-20.74-21.34-2.11-2.49-2.66-13.54-2.04-14.59,1.25-2.11,10.76-8.64,13.33-8.31,13.97,1.76,27.58,2.46,40.8,2.12ZM380.85,591.75c-12.19,18.85-26.73,35.26-37.94,53.85-1.08,1.68-2.15,3.35-3.29,5.05-6.79,10.13-26.24,45.75-41.89,35.87-.64-.41-1.24-.9-1.79-1.47-6.91-7.11-7.1-26.1-7.96-34.48-.2-1.96-.38-3.92-.53-5.88-3.19-41.32,7.86-78.84,24.65-115.14,3.36-7.25,9.36-11.46,10.76-4.88,1.4,6.58,3.69,13.1,5.43,16.33,5.15,9.55,11.74,18.15,19.38,25.5,1.53,1.47,3.1,2.89,4.71,4.26,7.69,7.8,17.03,11.22,26.61,15.08,2.45.99,3.3,3.69,1.87,5.91ZM674.82,476.82c4.75,0,9.5,3.17,14.25,2.08,1.83.35,3.7.76,5.6,1.18,7.57,1.67,15.19,3.43,23.3,3.77,2.12.47,4.23.97,6.34,1.5,17.1,4.31,33.72,10.79,49.08,20.62,1.71,1.09,3.4,2.23,5.07,3.4,1.55,1.03,2.96,2.06,4.23,3.08-.92,1.97-2.15,3.75-3.47,5.37-1.32,1.61-2.75,3.04-4.04,4.32-1.44,1.41-2.95,2.72-4.53,3.94-11.92,9.29-27.46,13.11-42.42,13.4-2.14.04-4.26.01-6.36-.09-25.9,2.84-30.68-20.19-38.43-40.99-.7-1.89-1.43-3.76-2.16-5.56-1.7-6.51-4.87-9.68-6.45-16.02ZM708.08,272.53c4.77-11.92,13.13-22.05,21.02-33.08,2.59-3.62,15.4-3.34,20.24.88,1.11,1.06,2.22,2.13,3.34,3.22,3.35,3.28,6.7,6.74,9.92,10.5,1.38,1.47,2.75,2.93,4.23,4.54,35.37,38.6,67.01,79.35,85.41,129.62.71,1.98,1.4,3.96,2.05,5.95,1.83,5.55,3.43,11.16,4.78,16.8.45,1.88.87,3.74,1.27,5.53,5.96,29.52,3.94,56.12-6.32,83.02-5.5,6.49-15.68,3.05-20.82-2.1-6.33-7.92-7.92-17.42-5.33-26.31-.03-2.09-.09-4.36-.16-6.66-.38-11.52-1.07-23.3-5.6-33.44-.66-1.65-1.34-3.29-2.13-5.06-2.38-5.34-4.86-10.64-7.18-15.96-.87-1.8-1.75-3.6-2.62-5.4-2.61-5.36-5.23-10.7-7.87-16.27-16.79-30.73-36.74-57.68-52.27-73.79-4.42-4.58-9.27-9.15-14.5-13.68-1.31-1.13-2.64-2.26-3.99-3.39-1.01-.72-1.93-1.5-2.82-2.31-6.39-9.95-25.39-9.95-20.64-22.62ZM693.46,332.12c10.58,8.4,20.46,17.69,28.64,28.33,1.02,1.23,2.05,2.49,3.07,3.78,4.11,5.16,8.25,10.77,12.33,16.7,1.16,1.7,2.32,3.42,3.48,5.16,11.33,18.31,22.4,35.08,30.3,53.73,1.95,4.61-.49,6.9-5.18,5.14-24.11-9.05-48.36-14.45-73.92-17.64-2.07-.31-3.95-.69-5.87-1.03-5.74-.87-11.38-2.5-16.96-4.06-1.86-.52-3.71-1.03-5.55-1.51-3.23-.93-7.98-.93-10.73-2.38-1.63-.42-3.27-.82-4.92-1.22-1.71-3.42-3.75-7.1-5.89-10.69-.71-1.2-1.44-2.38-2.16-3.54-20.7-27.44,14.14-54.36,26.04-77.03,1-1.69,1.96-3.4,2.9-5.17.95-1.77,1.83-3.57,2.62-5.42,6.33,3.17,11.09,9.5,17.24,13.29,1.54,1.17,3.06,2.35,4.58,3.55ZM459.52,151.41c1.73-.81,3.47-1.53,5.36-2.15,15.55-5.09,32.25-5.58,48.28-8.09,9.22-1.44,18.75-1.9,28.43-1.58,31.51,1.04,64.48,10.34,92.57,20.74,1.79.73,3.58,1.45,5.36,2.18,4.83,1.97,9.65,3.97,14.42,6.05,1.59.69,3.17,1.4,4.75,2.12,1.63.61,3.17,1.29,4.64,2.02,1.47.72,2.87,1.44,4.23,2.19,2.04,2.1,4.65,3.15,7.54,4.07,2.89.92,5.23,7.9,3.29,10.5-12.67,17.03-23.99,41.49-39.91,48.41-1.67.73-3.39,1.26-5.16,1.57-2.84-.18-7.59-.18-11.4-1.02-2.03-.69-4.14-1.66-6.32-2.93-2.18-1.28-4.44-2.86-6.78-4.78-1.81-.59-3.7-1.17-5.6-1.74-7.81-1.85-15.47-3.78-23.08-5.56-1.9-.45-3.8-.88-5.69-1.31-21.52-4.07-44.25-5.89-66.54-9.26-2.23-.34-4.45-.69-6.66-1.05-18.27-4.88-45.33-9.31-60.55-16.83-1.52-.75-2.93-1.53-4.19-2.35-18.24-13.53,8.68-34.11,23.02-41.2ZM383.04,235.54c1.97-4.19,3.56-8.94,5.14-13.69,1.58.53,3.17,1.06,4.75,1.6,1.59.54,3.18,1.1,4.78,1.68,2.1,1.02,4.21,2.05,6.34,3.08,4.72,1.56,7.88,4.73,13.33,6.1,1.35.72,2.68,1.46,4.01,2.22-3.13,4.33-7.88,4.33-10.53,6.91-1.15.85-2.28,1.73-3.39,2.64-1.51,1.18-3,2.39-4.47,3.63-8.82,7.45-16.9,15.79-24.16,24.93-1.53-.36-3.06-.7-4.6-1.04,1.6-11.52,3.97-22.6,7.14-32.96.53-1.73,1.08-3.43,1.64-5.1ZM328.64,160.48c1.33-.39,2.71-.78,4.04-1.15,12.74-4,26.99-8.75,41.41-10.85,2.16-.46,4.37-.93,6.63-1.4-11.54,17.75-32.13,19.33-50.4,15.99-1.92-.22-3.9-.62-5.48-1.41,1.19-.4,2.47-.79,3.81-1.19ZM149.15,274.95c13.58-13.39,26.15-28.24,42.04-39.02,2.98-2.02,6.13-3.82,9.41-5.42,13.48-6.6,29.08-9.96,43.54-12.36.64-.11,1.71-.28,2.34-.39,29.39-3.83,59.41-3.83,89.43-3.83-1.58,3.17-1.58,6.33-2.96,9.22-.54,1.65-1.06,3.3-1.56,4.98-3.15,10.62-5.64,21.7-7.47,33.07-.32,2.01-2.25,3.47-4.27,3.25-24.58-2.67-48.23-3.22-70.8-1.67-1.82.13-3.64.26-5.45.42-30.72-.15-60.82,6.26-89.93,18.24-10.38,4.27-12.29,1.39-4.31-6.48ZM81.76,480.68c-3.99-16.53-3.99-33.95-1.31-49,.36-1.98.79-3.97,1.34-6.04,6.59-24.87,19.34-48.17,40.69-63.18,1.32-.96,2.65-1.9,3.98-2.82,4-2.76,8.07-5.32,12.13-7.67,1.8-1.19,3.63-2.36,5.47-3.5,34.98-21.8,75.01-34.93,117.34-35.94,13.24-.41,28.94-3.09,41.22,2.77,22.52,10.74,18.77,33.51,22.46,54.52.34,1.95.7,3.9,1.08,5.84,1.82,10.9,9.74,25.15,4.99,31.48-40.38,54.64-81.66,111.05-93.72,174.69-.81,4.24-1.48,8.52-2.01,12.82-2.2,20.72-1.15,41.95,1.37,63.24.48,4.06-2.06,5.93-5.71,4.08-36.1-18.27-71.4-41.52-100.2-70.71-1.53-1.55-3.04-3.12-4.53-4.7-15.5-14.95-20.78-37.48-29-56.78-.75-1.75-1.52-3.48-2.32-5.17-6.18-12.95-9.34-27.2-12.87-39.35-.14-1.52-.27-3.03-.4-4.58ZM240.93,781.35c-15.87,15.37-25.37,58.13-52.29,43.88-12.67-6.33-19-20.59-27.2-32.67-.84-1.2-1.68-2.43-2.53-3.71-15.25-24.04-29.84-48.66-42.38-74.13-.96-1.96-1.92-3.92-2.86-5.89-11.95-19.99-16.83-42.3-21.79-64.58-.44-2.01-.78-3.87-1.14-5.75,1.3-9.64-8.2-17.55-3.45-27.06,4.75,6.33,9.5,12.67,14.82,19.06,1.02,1.35,2.05,2.72,3.16,4.14,5.61,7.17,11.34,14.1,18.28,19.84,1.17,1.02,2.35,2.03,3.54,3.03,8.32,6.99,17.06,13.51,26.27,19.41,1.84,1.22,3.7,2.43,5.57,3.62,7.47,4.75,15.13,9.19,22.96,13.33,1.74,1.02,3.47,2.02,5.2,3.01,1.73,1,3.46,1.99,5.18,2.96,1.97,1.12,3.93,2.22,5.87,3.3,22.19,17.57,63.36,19.15,63.36,47.66,0,8.31-9.7,17.84-17.41,26.77-1.1,1.28-2.16,2.54-3.15,3.79Z" style="fill: #fff;"/>
  </g>
</svg>
