<svg xmlns="http://www.w3.org/2000/svg" viewBox="0 0 222 222" fill="none">
  <g transform="translate(7.92, 17.86)">
    <path d="M64.41,174.36c.78.18,1.54.45,2.26.84.31.08.63.16.93.22.31.07.62.13.92.18.49.1,1.28.25,1.77.35,4.57,1.25,9.08,2.72,13.6,4.14.4.13.8.25,1.2.38,21.08,8.05,44.79,8.35,64.59-3,.39-.17.79-.33,1.18-.5.39-.17.79-.33,1.18-.5.37-.2.74-.41,1.1-.63,4.03-2.35,7.57-5.4,10.39-9.15.29-.31.58-.62.87-.93,4.87-5.34,8.83-11.62,11.89-18.21.15-.37.28-.74.41-1.1,1.53-4.11,2.38-8.47,2.36-12.94.02-.4.04-.81.06-1.21.01-.4.03-.81.03-1.22,0-.43,0-.86,0-1.29.18-4.96-1.57-10.19-1.29-14.89.02-.09.06-.24.08-.33,3.05-6.87,9.27-11.66,10.67-19.06.13-.37.25-.74.36-1.11.9-2.99,1.25-6.15,1.02-9.29,0-.37,0-.74,0-1.11-.03-2.98-.49-5.92-1.25-8.79-.1-.39-.21-.78-.33-1.17-.9-2.33-1.89-4.65-2.97-6.93-.18-.38-.36-.76-.55-1.14-.4-.74-.8-1.49-1.2-2.23-.2-.37-.4-.74-.61-1.12-1.57-2.59-2.77-5.29-4.47-7.7-.22-.36-.45-.72-.68-1.07-1.6-2.5-3.3-4.92-5.16-7.21-.53-.65-1.07-1.3-1.63-1.93-1.12-1.49-2.35-2.92-3.67-4.28-.26-.27-.53-.54-.8-.81-1.16-1.16-2.57-2.34-3.5-3.62,1.22.89,2.32,1.95,3.59,2.78.28.21.57.42.85.63,1.69,1.28,3.29,2.64,4.71,4.17.28.3.55.61.8.93,1.7,2.16,2.87,4.8,4.43,6.99.2.27.4.54.6.8,1.83,2.63,6.04,4.43,8.74,2.33,4.5-3.9.6-9.61-2.73-13.11-.22-.26-.45-.52-.68-.77-.68-.76-1.37-1.49-2.04-2.17-.29-.3-.57-.59-.87-.88-.19-.19-.39-.38-.59-.57-3.41-3.6-7.34-6.2-11.55-8.76-.42-.25-.5-.77-.19-1.14,2.81-3.34,5.63-6.45,8.49-9.86.25-.29.5-.58.76-.87,1.33-1.51,2.72-2.98,4.2-4.39.25-.23.49-.47.74-.69,3.56-1.94,2.93-3.87.93-5.98-.25-.26-.52-.53-.81-.8C180.6,3.3,179.4,0,177.6,0s-3.9,3-5.67,4.8c-.26.26-.52.52-.78.79-.3.3-.6.61-.89.92-2.17,2.15-4.37,5.08-6.45,7.64-.3.37-.59.73-.89,1.07-1.82,1.89-3.32,4.59-6.32,4.59-.41-.04-.82-.09-1.22-.13-1.47-.16-2.94-.34-4.41-.53-.37-.05-.74-.1-1.1-.14-4.12-.73-8.29-1.38-12.49-1.92-.06-.01-.15-.03-.2-.04-4.56-1.22-9.19-1.81-13.84-1.94-.39-.01-.78-.02-1.16-.02-7.31.21-14.54-.03-21.81.88-.15.01-.41.03-.56.04-6.84.21-13.42,1.1-19.61,3.8-.18.07-.49.18-.67.24-10.2,2.92-20,7.28-28.6,13.6-.36.26-.71.52-1.07.78-6.75,5-12.61,10.8-17.25,17.16-.24.33-.48.67-.72,1.01-2.38,2.61-4.34,5.51-5.94,8.58-.18.34-.35.69-.52,1.03-2.99,5.44-7.03,10.73-8.01,17.02-.07.42-.13.81-.19,1.21-.5,3.9-1.7,7.81-.8,12.01.6,3.3.6,6.3.68,9.33.03.41.06.82.08,1.24.37,7.34,2.4,14.14,5.13,20.89.12.4.24.8.37,1.2,1.64,5.19,3.91,10.16,6.62,14.97.18.38.36.76.55,1.13,4.05,8.28,9.23,16.06,15.69,22.97,1.8,1.8.9,5.1-1.13,6.76-.24.3-.47.6-.69.9-.89,1.26-1.47,2.56-.85,4.05.12.3.29.6.52.92,2.11,2.63,5.33,5,8,4.8.08,0,.22-.03.3-.06,2-.75,2.92-4.79,5.73-6.26.34-.19.69-.36,1.07-.5.38-.14.78-.26,1.21-.34.29-.17.58-.27.87-.33.88-.19,1.78,0,2.67.04.4.04.79.1,1.18.19ZM168.22,124.56c-.02.37-.05.74-.07,1.11-.16,2.21-.38,4.38-.56,6.59-.03.37-.06.74-.09,1.1-.03.37-.06.73-.08,1.09-.03.28-.06.56-.1.83-.73,2.03-1.49,4.03-2.3,5.98-.17.37-.33.75-.5,1.13-2.08,4.85-5.14,9.06-8.74,12.8-.03.02-.07.06-.09.09-2.84,2.39-5.79,4.62-8.77,6.8-.32.23-.65.47-.98.7-1.59,1.42-3.29,2.73-5.06,3.91-.35.22-.7.45-1.06.67-14.74,8.53-32.45,9.43-48.74,5.74-.37-.09-.74-.18-1.11-.27-5.15-1.31-10-3.23-14.86-5.16-.37-.15-.72-.29-1.08-.43-.45-.19-.89-.37-1.34-.56-.22-.09-.44-.18-.66-.27-1.81-.85-4.62-.99-5.5-1.88-.18-.18-.28-.39-.28-.64,0-.27.03-.54.09-.82s.14-.55.24-.83c.83-2.23,3.06-4.54,4.63-6.46.22-.3.44-.59.68-.89.2-.27.4-.53.6-.8.2-.27.4-.53.6-.8,1.44,1.81,3.03,3.57,4.74,5.2.28.27.57.54.86.8.32.28.65.55.98.82,6.4,6.49,15.41,9.49,24,8.18.41-.06.81-.13,1.21-.21,4.14-.81,8.12-2.59,11.57-5.32.29-.23.56-.45.82-.67,11.72-8.7,17.73-22.51,20.16-36.57.09-.41.18-.82.26-1.25.05-.2.17-.39.33-.58.17-.19.38-.37.63-.55.25-.18.53-.36.83-.55.3-.18.61-.37.92-.57.63-.39,1.25-.81,1.73-1.28.22-.21.43-.43.65-.65,5.43-.15,13.1-.56,20.67-2.64.42-.12.84-.24,1.26-.36.3,0,.6-.08.89-.2.9-.35,2.7.42,2.7,1.11,0,2.19-.02,4.29-.08,6.55ZM118.11,107.24c.37.11.75.21,1.12.31,1.63.22,2.83.82,4.33.82-1.5.6-3,.6-4.64.46-.39-.04-.79-.09-1.18-.15-2.76-.44-5.5-1.49-7.9-2.3-.34-.12-.68-.25-1.02-.39,2.53-.79,5.92.29,9.29,1.24ZM105.28,83.99c-1.42.9-2.81,2.04-3.96,3.25-.77.81-1.44,1.69-2.13,2.56-.39-.47-.99-.69-1.53-.98-.54-.29-1.08-.72-1.15-1.33-.06-.52.25-1.02.66-1.33.74-.56,1.76-.99,2.57-1.46.27-.16.54-.31.8-.46,3.45-1.96,6.92-4.14,10.97-4.35-.17.88-.78,1.62-1.52,2.13-.17.11-.34.22-.52.31-1.4.72-2.84.8-4.19,1.66ZM115.82,96.75c1.68-2.25,2.95-4.27,5.35-5.77.52-.32,1.09-.61,1.7-.58.3.02.52.09.68.19.8.53.1,2.01.57,2.89.05.36.09.71.13,1.07.14,1.3.37,2.81.15,4.07-2.88-.31-5.79-1.09-8.58-1.87ZM122.45,53.16c-.22-.24-.45-.48-.7-.7-.25-.22-.52-.42-.82-.61-.22-.18-.43-.36-.64-.55-.21-.19-.42-.38-.62-.58.3.15.68.23,1.05.28.38.05.76.08,1.07.14.98.24,2,.38,3.02.5.34.04.68.08,1.02.13,1.79.13,3.49.35,4.97.97.13.61.14.62.27,1.23-1.53,1.59-2.64,4.27-4.2,4.27-2.1.3-3-3.3-4.42-5.07ZM121.51,68.12s0,.01,0,.02c-1.24-1.2-3.04-2.1-4.22-3.17-.24-.15-.47-.3-.72-.45-.99-.61-1.98-1.23-2.94-1.9-.34-.21-.68-.43-1.03-.64-1.72-1.08-3.5-2.08-5.37-3-.35-.18-.71-.35-1.07-.53-2.14-1.03-4.33-1.96-6.59-2.78-.75-.27-.81-.85-.18-1.33,3.23-2.43,6.57-1.95,9.62-.15.34.2.67.42,1,.64,2.57,1.7,4.46,3.97,6.21,6.36.22.3.44.6.65.9.14.23.28.46.43.69,1.15,1.75,2.95,3.55,4.2,5.33ZM99.79,66.14c.35.16.7.32,1.05.48-3.69.01-7.29,1.21-10.6,2.72.3-2.1.6-5.1,2.1-5.4,2.4-.9,5.1,1.2,7.44,2.21ZM94.23,125.53c1.2-1.5,2.39-3.01,3.56-4.53.69-.89,3.52-3.57,3.52-4.65.18-.26.35-.52.53-.78,1.62-.3,2.52,1.2,3.58,1.87.21.2.42.4.63.6.64.61,1.29,1.24,2.02,1.73.28.21.56.42.85.62,1.48,1.07,3.02,2.04,4.56,3.06.43.28.49.82.13,1.18-6.33,6.31-13.75,9.08-22.14,9.66-1.37.09-2.23-2.5-1.22-3.78,1.32-1.67,2.65-3.32,3.98-4.99ZM91.44,144.35c.44-.01.88-.03,1.31-.05.42-.02.83-.04,1.25-.07.41-.03.83-.07,1.24-.11,9.05-.97,17.29-5.06,24.05-11.14.31-.28.61-.56.91-.84,1.84-1.57,2.99-3.98,5.13-4.85.68-.28,1.16.16,1.01.88-2.02,9.74-7.58,18.58-15.13,24.88-.33.26-.66.51-1,.75-7.11,4.99-16.99,4.74-23.84-.71-.29-.24-.59-.49-.88-.75-1.37-1.21-2.7-2.59-3.93-4.04-.4-.47-.5-2.57-.39-2.77.24-.4,2.04-1.64,2.53-1.58,2.65.33,5.23.47,7.73.4ZM88.26,112.14c-2.31,3.57-5.07,6.68-7.19,10.21-.2.32-.41.64-.62.96-1.29,1.92-4.97,8.67-7.94,6.8-.12-.08-.23-.17-.34-.28-1.31-1.35-1.35-4.95-1.51-6.54-.04-.37-.07-.74-.1-1.12-.6-7.83,1.49-14.94,4.67-21.82.64-1.37,1.77-2.17,2.04-.93.26,1.25.7,2.48,1.03,3.09.98,1.81,2.22,3.44,3.67,4.83.29.28.59.55.89.81,1.46,1.48,3.23,2.13,5.04,2.86.46.19.63.7.35,1.12ZM143.98,90.35c.9,0,1.8.6,2.7.39.35.07.7.14,1.06.22,1.44.32,2.88.65,4.42.71.4.09.8.18,1.2.29,3.24.82,6.39,2.05,9.3,3.91.32.21.64.42.96.64.29.19.56.39.8.58-.17.37-.41.71-.66,1.02s-.52.58-.77.82c-.27.27-.56.52-.86.75-2.26,1.76-5.2,2.49-8.04,2.54-.41,0-.81,0-1.21-.02-4.91.54-5.82-3.83-7.28-7.77-.13-.36-.27-.71-.41-1.05-.32-1.23-.92-1.84-1.22-3.04ZM150.29,51.63c.9-2.26,2.49-4.18,3.98-6.27.49-.69,2.92-.63,3.84.17.21.2.42.4.63.61.63.62,1.27,1.28,1.88,1.99.26.28.52.56.8.86,6.7,7.32,12.7,15.04,16.19,24.57.13.37.26.75.39,1.13.35,1.05.65,2.12.91,3.18.09.36.17.71.24,1.05,1.13,5.59.75,10.64-1.2,15.74-1.04,1.23-2.97.58-3.95-.4-1.2-1.5-1.5-3.3-1.01-4.99,0-.4-.02-.83-.03-1.26-.07-2.18-.2-4.42-1.06-6.34-.13-.31-.25-.62-.4-.96-.45-1.01-.92-2.02-1.36-3.03-.17-.34-.33-.68-.5-1.02-.49-1.02-.99-2.03-1.49-3.08-3.18-5.82-6.96-10.93-9.91-13.99-.84-.87-1.76-1.73-2.75-2.59-.25-.21-.5-.43-.76-.64-.19-.14-.37-.28-.53-.44-1.21-1.89-4.81-1.89-3.91-4.29ZM147.52,62.93c2.01,1.59,3.88,3.35,5.43,5.37.19.23.39.47.58.72.78.98,1.56,2.04,2.34,3.17.22.32.44.65.66.98,2.15,3.47,4.24,6.65,5.74,10.18.37.87-.09,1.31-.98.97-4.57-1.71-9.17-2.74-14.01-3.34-.39-.06-.75-.13-1.11-.2-1.09-.17-2.16-.47-3.21-.77-.35-.1-.7-.2-1.05-.29-.61-.18-1.51-.18-2.03-.45-.31-.08-.62-.16-.93-.23-.32-.65-.71-1.35-1.12-2.03-.14-.23-.27-.45-.41-.67-3.92-5.2,2.68-10.3,4.94-14.6.19-.32.37-.65.55-.98.18-.34.35-.68.5-1.03,1.2.6,2.1,1.8,3.27,2.52.29.22.58.45.87.67ZM103.17,28.67c.33-.15.66-.29,1.02-.41,2.95-.96,6.11-1.06,9.15-1.53,1.75-.27,3.55-.36,5.39-.3,5.97.2,12.22,1.96,17.55,3.93.34.14.68.28,1.02.41.91.37,1.83.75,2.73,1.15.3.13.6.27.9.4.31.12.6.24.88.38.28.14.54.27.8.41.39.4.88.6,1.43.77s.99,1.5.62,1.99c-2.4,3.23-4.55,7.86-7.56,9.18-.32.14-.64.24-.98.3-.54-.03-1.44-.03-2.16-.19-.39-.13-.78-.31-1.2-.56-.41-.24-.84-.54-1.29-.91-.34-.11-.7-.22-1.06-.33-1.48-.35-2.93-.72-4.37-1.05-.36-.08-.72-.17-1.08-.25-4.08-.77-8.39-1.12-12.61-1.76-.42-.06-.84-.13-1.26-.2-3.46-.93-8.59-1.77-11.48-3.19-.29-.14-.55-.29-.79-.44-3.46-2.56,1.65-6.47,4.36-7.81ZM88.68,44.62c.37-.79.67-1.69.97-2.59.3.1.6.2.9.3.3.1.6.21.91.32.4.19.8.39,1.2.58.89.3,1.49.9,2.53,1.16.26.14.51.28.76.42-.59.82-1.49.82-2,1.31-.22.16-.43.33-.64.5-.29.22-.57.45-.85.69-1.67,1.41-3.2,2.99-4.58,4.73-.29-.07-.58-.13-.87-.2.3-2.18.75-4.28,1.35-6.25.1-.33.2-.65.31-.97ZM78.36,30.39c.25-.07.51-.15.77-.22,2.42-.76,5.12-1.66,7.85-2.06.41-.09.83-.18,1.26-.26-2.19,3.36-6.09,3.66-9.55,3.03-.36-.04-.74-.12-1.04-.27.23-.08.47-.15.72-.22ZM44.34,52.09c2.57-2.54,4.96-5.35,7.97-7.4.56-.38,1.16-.72,1.78-1.03,2.55-1.25,5.51-1.89,8.25-2.34.12-.02.32-.05.44-.07,5.57-.73,11.26-.73,16.95-.73-.3.6-.3,1.2-.56,1.75-.1.31-.2.63-.3.94-.6,2.01-1.07,4.11-1.42,6.27-.06.38-.43.66-.81.62-4.66-.51-9.14-.61-13.42-.32-.35.02-.69.05-1.03.08-5.82-.03-11.53,1.19-17.05,3.46-1.97.81-2.33.26-.82-1.23ZM31.57,91.08c-.76-3.13-.76-6.43-.25-9.29.07-.38.15-.75.25-1.15,1.25-4.71,3.67-9.13,7.71-11.97.25-.18.5-.36.75-.53.76-.52,1.53-1.01,2.3-1.45.34-.22.69-.45,1.04-.66,6.63-4.13,14.22-6.62,22.24-6.81,2.51-.08,5.48-.59,7.81.53,4.27,2.04,3.56,6.35,4.26,10.33.07.37.13.74.21,1.11.35,2.07,1.85,4.77.95,5.97-7.65,10.36-15.48,21.05-17.76,33.11-.15.8-.28,1.61-.38,2.43-.42,3.93-.22,7.95.26,11.99.09.77-.39,1.12-1.08.77-6.84-3.46-13.53-7.87-18.99-13.4-.29-.29-.58-.59-.86-.89-2.94-2.83-3.94-7.1-5.5-10.76-.14-.33-.29-.66-.44-.98-1.17-2.45-1.77-5.16-2.44-7.46-.03-.29-.05-.58-.08-.87ZM61.74,148.07c-3.01,2.91-4.81,11.02-9.91,8.32-2.4-1.2-3.6-3.9-5.16-6.19-.16-.23-.32-.46-.48-.7-2.89-4.56-5.66-9.22-8.03-14.05-.18-.37-.36-.74-.54-1.12-2.27-3.79-3.19-8.02-4.13-12.24-.08-.38-.15-.73-.22-1.09.25-1.83-1.55-3.33-.65-5.13.9,1.2,1.8,2.4,2.81,3.61.19.26.39.51.6.79,1.06,1.36,2.15,2.67,3.46,3.76.22.19.45.38.67.57,1.58,1.33,3.23,2.56,4.98,3.68.35.23.7.46,1.06.69,1.42.9,2.87,1.74,4.35,2.53.33.19.66.38.99.57.33.19.66.38.98.56.37.21.75.42,1.11.63,4.21,3.33,12.01,3.63,12.01,9.03,0,1.58-1.84,3.38-3.3,5.07-.21.24-.41.48-.6.72Z" fill="#000000"/>
  </g>
</svg>
